<svg width="23" height="19" viewBox="0 0 23 19" fill="none" xmlns="http://www.w3.org/2000/svg">
<path d="M21.6562 0.90625H1.34375C0.911621 0.90625 0.5625 1.25537 0.5625 1.6875V17.3125C0.5625 17.7446 0.911621 18.0938 1.34375 18.0938H21.6562C22.0884 18.0938 22.4375 17.7446 22.4375 17.3125V1.6875C22.4375 1.25537 22.0884 0.90625 21.6562 0.90625ZM20.6797 3.61133V16.3359H2.32031V3.61133L1.64648 3.08643L2.60596 1.85352L3.65088 2.6665H19.3516L20.3965 1.85352L21.356 3.08643L20.6797 3.61133V3.61133ZM19.3516 2.66406L11.5 8.76758L3.64844 2.66406L2.60352 1.85107L1.64404 3.08398L2.31787 3.60889L10.6577 10.0933C10.8976 10.2796 11.1926 10.3807 11.4963 10.3807C11.8001 10.3807 12.0951 10.2796 12.335 10.0933L20.6797 3.61133L21.3535 3.08643L20.394 1.85352L19.3516 2.66406Z" fill="#AF48FF"/>
</svg>
