<svg width="116" height="43" viewBox="0 0 116 43" fill="none" xmlns="http://www.w3.org/2000/svg">
<g clip-path="url(#clip0_1_70)">
<path d="M59.8886 14.2425L65.4074 13.8865C65.5333 14.7871 65.7641 15.4573 66.1418 15.9391C66.7504 16.6931 67.5897 17.0701 68.7019 17.0701C69.5203 17.0701 70.1708 16.8816 70.6114 16.4836C71.0311 16.1695 71.2829 15.6668 71.2829 15.1432C71.2829 14.6405 71.0521 14.1587 70.6534 13.8446C70.2337 13.4676 69.2475 13.0906 67.6947 12.7554C65.1556 12.1899 63.33 11.4359 62.2598 10.4724C61.1896 9.5718 60.581 8.25227 60.623 6.84896C60.623 5.88549 60.9168 4.92202 61.4624 4.12611C62.0919 3.22548 62.9522 2.51335 63.9805 2.1154C65.0926 1.63366 66.6454 1.38232 68.597 1.38232C70.9892 1.38232 72.8148 1.82217 74.0738 2.7228C75.3329 3.60249 76.0883 5.02675 76.3191 6.97463L70.8633 7.2888C70.7164 6.451 70.4226 5.8436 69.9399 5.44565C69.4573 5.04769 68.8278 4.85919 68.0094 4.85919C67.3379 4.85919 66.8343 5.0058 66.4986 5.27809C66.1838 5.52943 65.974 5.90644 65.9949 6.32533C65.9949 6.63951 66.1628 6.93274 66.4146 7.12124C66.6874 7.37258 67.3379 7.60298 68.3661 7.81243C70.9052 8.35699 72.7098 8.90156 73.822 9.46708C74.9342 10.0326 75.7316 10.7238 76.2142 11.5406C76.7178 12.3784 76.9696 13.3419 76.9486 14.3263C76.9486 15.4992 76.6129 16.6721 75.9414 17.6566C75.2489 18.6829 74.2837 19.4788 73.1505 19.9605C71.9544 20.4841 70.4436 20.7564 68.6389 20.7564C65.4494 20.7564 63.246 20.149 62.008 18.9133C60.7699 17.6775 60.0355 16.1276 59.8886 14.2425ZM1.322 20.4422V1.71744H10.9957C12.7793 1.71744 14.1643 1.86406 15.1085 2.17823C16.0318 2.47146 16.8502 3.07887 17.3958 3.89572C18.0043 4.79635 18.2981 5.8436 18.2771 6.93274C18.3401 8.77589 17.3958 10.5353 15.78 11.4568C15.1505 11.8129 14.458 12.0643 13.7446 12.1899C14.2692 12.3365 14.7938 12.5879 15.2554 12.8811C15.6122 13.1743 15.9059 13.5095 16.1787 13.8655C16.4935 14.2216 16.7663 14.6195 16.9971 15.0384L19.809 20.4632H13.22L10.1143 14.7033C9.71563 13.9702 9.37989 13.4885 9.06512 13.2581C8.64544 12.9649 8.14182 12.8183 7.63821 12.8183H7.13459V20.4213H1.322V20.4422ZM7.13459 9.29952H9.58973C10.1143 9.25763 10.6179 9.17385 11.1216 9.04818C11.4993 8.98534 11.835 8.77589 12.0658 8.46172C12.6324 7.7077 12.5485 6.63951 11.856 5.99021C11.4783 5.67604 10.7439 5.50848 9.69465 5.50848H7.13459V9.29952ZM0 36.4861L5.51881 36.13C5.64472 37.0306 5.87554 37.7009 6.25326 38.1826C6.84081 38.9366 7.70116 39.3346 8.81332 39.3346C9.63169 39.3346 10.2822 39.1461 10.7229 38.7481C11.1425 38.413 11.3944 37.9313 11.3944 37.4077C11.3944 36.905 11.1635 36.4232 10.7648 36.1091C10.3452 35.7321 9.3589 35.355 7.78509 35.0199C5.24602 34.4544 3.42041 33.7004 2.35022 32.7369C1.28003 31.8363 0.671491 30.5168 0.713459 29.1134C0.713459 28.15 1.00724 27.1865 1.55282 26.3906C2.18234 25.49 3.04269 24.7778 4.07091 24.3799C5.18307 23.8982 6.73589 23.6468 8.68741 23.6468C11.0796 23.6468 12.9052 24.0867 14.1643 24.9873C15.4233 25.8879 16.1577 27.2912 16.3886 29.2391L10.9327 29.5533C10.7858 28.7155 10.492 28.1081 10.0094 27.7101C9.54776 27.3122 8.89725 27.1237 8.07887 27.1446C7.40738 27.1446 6.90376 27.2912 6.56802 27.5845C6.23227 27.8358 6.04342 28.2128 6.0644 28.6317C6.0644 28.9459 6.23227 29.2391 6.48408 29.4276C6.75687 29.679 7.40738 29.9094 8.4356 30.1188C10.9747 30.6634 12.7793 31.2079 13.8915 31.7735C15.0036 32.339 15.801 33.0302 16.2836 33.847C16.7873 34.6848 17.0391 35.6483 17.0391 36.6117C17.0391 37.7847 16.6823 38.9366 16.0318 39.921C15.3394 40.9473 14.3741 41.7433 13.241 42.225C12.0449 42.7486 10.534 43.0209 8.72938 43.0209C5.5398 43.0209 3.33647 42.4135 2.09841 41.1777C0.860347 39.921 0.167873 38.3711 0 36.4861Z" fill="#5CBAB7"/>
<path d="M27.9088 35.02L32.987 36.5489C32.7142 37.8266 32.1476 39.0414 31.3712 40.1096C30.6578 41.0521 29.7135 41.7852 28.6433 42.2669C27.5521 42.7487 26.1672 43 24.4884 43C22.453 43 20.7743 42.7068 19.4942 42.1203C18.1932 41.5338 17.0811 40.4866 16.1368 38.9995C15.1925 37.5124 14.7308 35.6064 14.7308 33.2815C14.7308 30.1817 15.5492 27.794 17.207 26.1393C18.8647 24.4846 21.1939 23.6469 24.2156 23.6469C26.5868 23.6469 28.4334 24.1286 29.7974 25.0711C31.1404 26.0346 32.1476 27.5007 32.8191 29.4695L27.699 30.6006C27.5731 30.1607 27.3842 29.7209 27.1324 29.3439C26.8177 28.904 26.419 28.5689 25.9363 28.3176C25.4537 28.0662 24.9081 27.9615 24.3625 27.9615C23.0405 27.9615 22.0333 28.4851 21.3408 29.5533C20.8162 30.3283 20.5434 31.564 20.5434 33.2396C20.5434 35.3132 20.8582 36.7374 21.4877 37.5124C22.1172 38.2874 22.9986 38.6644 24.1527 38.6644C25.2648 38.6644 26.1042 38.3502 26.6708 37.7428C27.2373 37.0935 27.657 36.1929 27.9088 35.02ZM39.7648 23.961H45.5565V30.5168H51.8936V23.961H57.7272V42.6858H51.8936V35.1037H45.5565V42.6858H39.7648V23.961Z" fill="#5CBAB7"/>
<path d="M56.9298 33.3234C56.9298 30.2654 57.7902 27.8777 59.4899 26.1811C61.1896 24.4846 63.5818 23.6259 66.6245 23.6259C69.7511 23.6259 72.1433 24.4637 73.843 26.1392C75.5427 27.8148 76.3821 30.1607 76.3821 33.1768C76.3821 35.376 76.0043 37.1563 75.2699 38.5596C74.5564 39.942 73.4443 41.073 72.0803 41.827C70.6744 42.602 68.9327 42.9999 66.8553 42.9999C64.7359 42.9999 62.9942 42.6648 61.6093 41.9946C60.1823 41.2825 59.0072 40.1724 58.2308 38.8109C57.3705 37.3448 56.9298 35.5226 56.9298 33.3234ZM62.7214 33.3443C62.7214 35.2294 63.0781 36.5908 63.7706 37.4286C64.4631 38.2454 65.4284 38.6643 66.6454 38.6643C67.8835 38.6643 68.8488 38.2664 69.5412 37.4495C70.2337 36.6327 70.5695 35.1875 70.5695 33.093C70.5695 31.3336 70.2127 30.035 69.4993 29.2391C68.7858 28.4223 67.8205 28.0243 66.6035 28.0243C65.5333 27.9824 64.5051 28.4432 63.7916 29.26C63.0781 30.0769 62.7214 31.4383 62.7214 33.3443ZM82.3205 33.3234C82.3205 30.2654 83.1809 27.8777 84.8806 26.1811C86.5803 24.4846 88.9725 23.6259 92.0152 23.6259C95.1418 23.6259 97.555 24.4637 99.2337 26.1392C100.912 27.8148 101.773 30.1607 101.773 33.1768C101.773 35.376 101.395 37.1563 100.661 38.5596C99.9472 39.942 98.835 41.073 97.4711 41.827C96.0651 42.602 94.3234 42.9999 92.246 42.9999C90.1266 42.9999 88.3849 42.6648 87 41.9946C85.5731 41.2825 84.398 40.1724 83.6216 38.8109C82.7612 37.3448 82.3205 35.5226 82.3205 33.3234ZM88.1122 33.3443C88.1122 35.2294 88.4689 36.5908 89.1614 37.4286C89.8538 38.2454 90.8191 38.6643 92.0362 38.6643C93.2742 38.6643 94.2395 38.2664 94.932 37.4495C95.6245 36.6327 95.9602 35.1875 95.9602 33.093C95.9602 31.3336 95.6035 30.035 94.89 29.2391C94.1766 28.4223 93.2113 28.0243 91.9942 28.0243C90.924 27.9824 89.8748 28.4432 89.1823 29.26C88.4689 30.0769 88.1122 31.4383 88.1122 33.3443Z" fill="#5CBAB7"/>
<path d="M101.164 23.9611H106.956V38.078H116V42.6859H101.143V23.9611H101.164Z" fill="#5CBAB7"/>
<path d="M94.7806 22.8804C100.612 18.4946 102.41 11.0598 98.7967 6.27445C95.1838 1.48908 87.5281 1.16523 81.6972 5.5511C75.8663 9.93698 74.0682 17.3717 77.6811 22.1571C81.294 26.9425 88.9497 27.2663 94.7806 22.8804Z" fill="black"/>
<mask id="mask0_1_70" style="mask-type:luminance" maskUnits="userSpaceOnUse" x="75" y="2" width="26" height="24">
<path d="M94.7806 22.8804C100.612 18.4946 102.41 11.0598 98.7967 6.27445C95.1838 1.48908 87.5281 1.16523 81.6972 5.5511C75.8663 9.93698 74.0682 17.3717 77.6811 22.1571C81.294 26.9425 88.9497 27.2663 94.7806 22.8804Z" fill="white"/>
</mask>
<g mask="url(#mask0_1_70)">
<path d="M62.8106 11.8424L92.9422 -10.8219L113.792 16.7947L83.6608 39.459L62.8106 11.8424Z" fill="black"/>
<mask id="mask1_1_70" style="mask-type:luminance" maskUnits="userSpaceOnUse" x="62" y="-11" width="52" height="51">
<path d="M62.8106 11.8424L92.9422 -10.8219L113.792 16.7947L83.6608 39.459L62.8106 11.8424Z" fill="white"/>
</mask>
<g mask="url(#mask1_1_70)">
<path d="M94.7806 22.8804C100.612 18.4946 102.41 11.0598 98.7967 6.27445C95.1838 1.48908 87.5281 1.16523 81.6972 5.5511C75.8663 9.93698 74.0682 17.3717 77.6811 22.1571C81.294 26.9425 88.9497 27.2663 94.7806 22.8804Z" fill="black"/>
<mask id="mask2_1_70" style="mask-type:luminance" maskUnits="userSpaceOnUse" x="75" y="2" width="26" height="24">
<path d="M94.7806 22.8804C100.612 18.4946 102.41 11.0598 98.7967 6.27445C95.1838 1.48908 87.5281 1.16523 81.6972 5.5511C75.8663 9.93698 74.0682 17.3717 77.6811 22.1571C81.294 26.9425 88.9497 27.2663 94.7806 22.8804Z" fill="white"/>
</mask>
<g mask="url(#mask2_1_70)">
<path d="M71.2012 13.6864L92.3003 -2.18328L105.396 15.163L84.297 31.0327L71.2012 13.6864Z" fill="black"/>
<mask id="mask3_1_70" style="mask-type:luminance" maskUnits="userSpaceOnUse" x="71" y="-3" width="35" height="35">
<path d="M71.2012 13.6864L92.3003 -2.18328L105.396 15.163L84.297 31.0327L71.2012 13.6864Z" fill="white"/>
</mask>
<g mask="url(#mask3_1_70)">
<path d="M94.7806 22.8804C100.612 18.4946 102.41 11.0598 98.7967 6.27445C95.1838 1.48908 87.5281 1.16523 81.6972 5.5511C75.8663 9.93698 74.0682 17.3717 77.6811 22.1571C81.294 26.9425 88.9497 27.2663 94.7806 22.8804Z" fill="black" stroke="#5CBAB7" stroke-width="4" stroke-miterlimit="10"/>
</g>
<mask id="mask4_1_70" style="mask-type:luminance" maskUnits="userSpaceOnUse" x="74" y="-2" width="29" height="33">
<path d="M74.2079 24.0991L81.4847 -1.24438L102.407 4.74713L95.1306 30.0906L74.2079 24.0991Z" fill="white"/>
</mask>
<g mask="url(#mask4_1_70)">
<path d="M71.2012 13.6821L92.2962 -2.18329L105.396 15.1673L84.3011 31.0327L71.2012 13.6821Z" stroke="#5CBAB7" stroke-width="4" stroke-miterlimit="10"/>
</g>
<path d="M94.7806 22.8804C100.612 18.4946 102.41 11.0598 98.7967 6.27445C95.1838 1.48908 87.5281 1.16523 81.6972 5.5511C75.8663 9.93698 74.0682 17.3717 77.6811 22.1571C81.294 26.9425 88.9497 27.2663 94.7806 22.8804Z" stroke="#5CBAB7" stroke-width="4" stroke-miterlimit="10"/>
<path d="M71.2012 13.6864L92.3003 -2.18328L105.396 15.163L84.297 31.0327L71.2012 13.6864Z" fill="black"/>
<mask id="mask5_1_70" style="mask-type:luminance" maskUnits="userSpaceOnUse" x="71" y="-3" width="35" height="35">
<path d="M71.2012 13.6864L92.3003 -2.18328L105.396 15.163L84.297 31.0327L71.2012 13.6864Z" fill="white"/>
</mask>
<g mask="url(#mask5_1_70)">
<path d="M94.7806 22.8804C100.612 18.4946 102.41 11.0598 98.7967 6.27445C95.1838 1.48908 87.5281 1.16523 81.6972 5.5511C75.8663 9.93698 74.0682 17.3717 77.6811 22.1571C81.294 26.9425 88.9497 27.2663 94.7806 22.8804Z" fill="black" stroke="#5CBAB7" stroke-width="4" stroke-miterlimit="10"/>
</g>
<mask id="mask6_1_70" style="mask-type:luminance" maskUnits="userSpaceOnUse" x="74" y="-2" width="29" height="33">
<path d="M74.2079 24.0991L81.4847 -1.24438L102.407 4.74713L95.1306 30.0906L74.2079 24.0991Z" fill="white"/>
</mask>
<g mask="url(#mask6_1_70)">
<path d="M71.2012 13.6821L92.2962 -2.18329L105.396 15.1673L84.3011 31.0327L71.2012 13.6821Z" stroke="#5CBAB7" stroke-width="4" stroke-miterlimit="10"/>
</g>
<path d="M62.8106 11.8424L92.9422 -10.8219L113.792 16.7947L83.6608 39.459L62.8106 11.8424Z" stroke="#5CBAB7" stroke-width="4" stroke-miterlimit="10"/>
</g>
<path d="M94.7806 22.8804C100.612 18.4946 102.41 11.0598 98.7967 6.27445C95.1838 1.48908 87.5281 1.16523 81.6972 5.5511C75.8663 9.93698 74.0682 17.3717 77.6811 22.1571C81.294 26.9425 88.9497 27.2663 94.7806 22.8804Z" stroke="#5CBAB7" stroke-width="4" stroke-miterlimit="10"/>
<path d="M82.3416 12.8392L84.44 11.3731L87.021 15.0384C87.4617 15.6249 87.7974 16.2533 88.0492 16.9444C88.1961 17.4681 88.1541 18.0336 87.9443 18.5363C87.6715 19.1646 87.2308 19.6882 86.6433 20.0652C85.9508 20.547 85.3633 20.8193 84.8596 20.903C84.377 20.9868 83.8734 20.903 83.4117 20.6936C82.9081 20.4422 82.4675 20.0862 82.1317 19.6254L83.9363 17.9498C84.0832 18.1802 84.2721 18.3896 84.4819 18.5572C84.6288 18.6619 84.7967 18.7248 84.9856 18.7248C85.1324 18.7248 85.2793 18.6619 85.3842 18.5781C85.5941 18.4525 85.741 18.2011 85.72 17.9498C85.657 17.5937 85.5102 17.2377 85.2793 16.9654L82.3416 12.8392ZM88.6368 15.1641L90.5463 13.6561C90.7562 13.9074 91.029 14.0959 91.3227 14.2006C91.7424 14.3263 92.1831 14.2425 92.5398 13.9703C92.7916 13.8027 93.0015 13.5723 93.0854 13.2791C93.2113 12.9021 93.0015 12.4832 92.6238 12.3575C92.5608 12.3365 92.4979 12.3156 92.4349 12.3156C92.1831 12.2947 91.7424 12.3994 91.0919 12.6717C90.0217 13.1115 89.1824 13.2791 88.5528 13.2162C87.9443 13.1534 87.3777 12.8392 87.042 12.3156C86.7902 11.9595 86.6643 11.5406 86.6433 11.1217C86.6433 10.64 86.7692 10.1583 87.042 9.76031C87.4407 9.1948 87.9233 8.71307 88.5109 8.33606C89.3922 7.72865 90.1686 7.43542 90.8401 7.43542C91.5116 7.43542 92.1411 7.7496 92.7287 8.39889L90.8401 9.88599C90.4624 9.40425 89.7489 9.29953 89.2663 9.67654L89.2034 9.73937C88.9935 9.86504 88.8466 10.0535 88.7627 10.2839C88.6997 10.4515 88.7417 10.64 88.8466 10.7866C88.9306 10.8913 89.0565 10.9751 89.2034 10.9751C89.3712 10.9961 89.665 10.9123 90.0847 10.7238C91.1339 10.2839 91.9313 10.0326 92.4769 9.94882C92.9385 9.86504 93.4211 9.90693 93.8618 10.0954C94.2605 10.263 94.5963 10.5562 94.8271 10.9123C95.1209 11.3312 95.2887 11.8339 95.3097 12.3575C95.3307 12.9021 95.1838 13.4257 94.89 13.8865C94.5123 14.452 94.0297 14.9337 93.4631 15.3107C92.309 16.1066 91.3647 16.4418 90.6093 16.3161C89.7909 16.1904 89.1194 15.7715 88.6368 15.1641Z" fill="#5CBAB7"/>
</g>
</g>
</g>
<defs>
<clipPath id="clip0_1_70">
<rect width="116" height="43" fill="white"/>
</clipPath>
</defs>
</svg>
